<svg xmlns="http://www.w3.org/2000/svg" width="16" height="16" viewBox="0 0 16 16"><defs><clipPath id="b0pra"><path fill="#fff" d="M8 8c4.938 0 8 2.03 8 7v1H0v-1c0-4.97 3.062-7 8-7z"/></clipPath><clipPath id="b0prb"><path fill="#fff" d="M8 0a5 5 0 1 1 0 10A5 5 0 0 1 8 0z"/></clipPath></defs><g><g opacity=".8"><g opacity=".8"><path fill="none" stroke="#000" stroke-miterlimit="50" stroke-width="4" d="M8 8c4.938 0 8 2.03 8 7v1H0v0-1c0-4.97 3.062-7 8-7z" clip-path="url(&quot;#b0pra&quot;)"/></g><g opacity=".8"><path fill="none" stroke="#000" stroke-miterlimit="50" stroke-width="4" d="M8 0a5 5 0 1 1 0 10A5 5 0 0 1 8 0z" clip-path="url(&quot;#b0prb&quot;)"/></g></g></g></svg>